<?xml version="1.0" encoding="UTF-8"?><svg id="Layer_1" xmlns="http://www.w3.org/2000/svg" viewBox="0 0 183.87 194.17"><defs><style>.cls-1{fill:#fff;}.cls-2{fill:#fd4e5c;}</style></defs><g><path d="M100.42,118.48h-21.03c-3.07,0-5.56-2.5-5.56-5.56v-18.72h2v18.72c0,1.96,1.6,3.56,3.56,3.56h21.03c1.96,0,3.56-1.6,3.56-3.56v-18.73h2v18.73c0,3.07-2.5,5.56-5.56,5.56Z"/><g><path class="cls-2" d="M93.25,94.21v12.9c0,1.15,1.11,2.09,2.47,2.09s2.47-.94,2.47-2.09v-12.91h-4.94Z"/><path class="cls-2" d="M81.62,94.19v12.92c0,1.15,1.11,2.09,2.47,2.09s2.47-.94,2.47-2.09v-12.9c-1.65,0-3.29-.01-4.94-.02Z"/></g><g><path class="cls-1" d="M89.91,136.98h0c-1.89,0-3.43-1.54-3.43-3.43v-16.07h6.86v16.07c0,1.89-1.54,3.43-3.43,3.43Z"/><path d="M89.91,137.98c-2.44,0-4.43-1.99-4.43-4.43v-17.07h8.86v17.07c0,2.44-1.99,4.43-4.43,4.43Zm-2.43-19.5v15.07c0,1.34,1.09,2.43,2.43,2.43s2.43-1.09,2.43-2.43v-15.07h-4.86Z"/></g><g><path class="cls-1" d="M89.91,136.98h0c-1.89,0-3.43-1.54-3.43-3.43v-16.07h6.86v16.07c0,1.89-1.54,3.43-3.43,3.43Z"/><path d="M89.91,137.73c-2.3,0-4.18-1.88-4.18-4.18v-16.82h8.36v16.82c0,2.3-1.88,4.18-4.18,4.18Zm-2.68-19.5v15.32c0,1.48,1.2,2.68,2.68,2.68s2.68-1.2,2.68-2.68v-15.32h-5.36Z"/></g></g><path d="M91.37,131.58c-.21,0-.38-.17-.38-.38v-11.57c0-.21,.17-.38,.38-.38s.38,.17,.38,.38v11.57c0,.21-.17,.38-.38,.38Z"/><path d="M89.52,135.28c-.21,0-.38-.17-.38-.38s.17-.38,.38-.38c1.4,0,1.46-1.69,1.46-1.76,0-.21,.19-.36,.39-.38,.21,0,.38,.18,.38,.39-.01,.87-.5,2.51-2.22,2.51Z"/><g><path d="M94.72,54.45v-19.03c-.66,.13-1.33,.21-2,.26v20.3l.75,.2c6.19,1.61,10.51,7.22,10.51,13.62v21.46h2v-21.46c0-7.06-4.59-13.26-11.26-15.34Z"/><path d="M84.62,35.11v19.49c-6.39,2.23-10.79,8.37-10.79,15.19v21.46h2v-21.46c0-6.19,4.14-11.74,10.07-13.5l.72-.21v-20.44c-.68-.1-1.35-.27-2-.53Z"/></g><path d="M93.39,36.24h-7.43c-2.08,0-3.77-1.69-3.77-3.77s1.69-3.77,3.77-3.77h7.43c2.08,0,3.77,1.69,3.77,3.77s-1.69,3.77-3.77,3.77Zm-7.43-5.55c-.98,0-1.77,.8-1.77,1.77s.8,1.77,1.77,1.77h7.43c.98,0,1.77-.79,1.77-1.77s-.79-1.77-1.77-1.77h-7.43Z"/><path class="cls-2" d="M78.02,91.26v-18.84s2.26-4.89,11.66-3.95c9.4,.94,11.47-2.07,11.47-2.07v24.85h-23.12Z"/><g><path d="M2.71,180.14c-.75,0-1.38-.27-1.9-.8-.54-.52-.8-1.15-.8-1.9v-27.38c0-.75,.27-1.38,.8-1.9,.52-.54,1.16-.8,1.9-.8s1.38,.27,1.91,.8c.54,.52,.8,1.16,.8,1.9v27.38c0,.75-.27,1.38-.8,1.9-.52,.54-1.16,.8-1.91,.8Z"/><path d="M39.62,179.1h-.02v-.02l-16.5-21.23v19.58c0,.75-.27,1.38-.8,1.9-.52,.54-1.16,.8-1.91,.8s-1.38-.27-1.9-.8c-.54-.52-.8-1.15-.8-1.9v-27.49c0-.58,.17-1.1,.5-1.56,.34-.47,.78-.8,1.33-.99,.54-.2,1.09-.21,1.65-.05,.55,.17,1,.48,1.35,.94l16.5,21.25v-19.6c0-.75,.26-1.38,.78-1.91s1.18-.8,1.93-.8,1.38,.27,1.9,.8c.54,.52,.8,1.16,.8,1.91v27.54s0,.08-.02,.14v.11s0,.08-.02,.14c0,.06,0,.11-.02,.14l-.02,.12c-.01,.08-.03,.12-.04,.14,0,.02-.02,.05-.05,.11-.01,.06-.03,.11-.04,.14l-.05,.12-.07,.11s-.04,.08-.07,.14l-.07,.07s-.05,.08-.09,.14l-.07,.09s-.04,.05-.09,.09c-.04,.06-.08,.09-.09,.09,0,.02-.03,.05-.09,.09-.04,.05-.08,.08-.11,.09,.05-.03,.04-.02-.02,.02l-.02,.02c-.12,.09-.24,.17-.34,.23h-.02c-.12,.06-.25,.11-.37,.16-.06,.03-.08,.04-.05,.02-.12,.05-.25,.08-.39,.09l-.07,.02c-.14,.02-.27,.02-.39,.02-.09,0-.19,0-.3-.02,.03,.02,.01,.02-.05,0-.09-.01-.17-.03-.23-.05,.01,.02-.02,0-.09-.02-.08-.02-.14-.03-.18-.05-.02,0-.05-.02-.09-.05-.08-.02-.14-.04-.18-.07-.03,0-.06-.01-.09-.05-.06-.03-.12-.05-.16-.07-.05-.03-.08-.05-.09-.07-.05-.03-.1-.07-.16-.11-.05-.03-.08-.05-.09-.07-.08-.06-.15-.12-.21-.18l-.02-.02v-.02c-.06-.06-.12-.12-.16-.18Z"/><path d="M76.07,147.23c.75,0,1.39,.27,1.93,.8,.52,.54,.78,1.18,.78,1.93s-.27,1.38-.8,1.91c-.52,.54-1.16,.8-1.91,.8h-.02l-13.86-.05v8.33h10.01c.75,0,1.39,.26,1.93,.78,.54,.54,.8,1.18,.8,1.93s-.27,1.39-.8,1.93c-.54,.52-1.18,.78-1.93,.78h-10.01v11.06c0,.75-.27,1.38-.8,1.9-.54,.54-1.18,.8-1.93,.8s-1.38-.27-1.9-.8c-.54-.52-.8-1.15-.8-1.9v-27.52c0-.76,.27-1.41,.8-1.93,.52-.54,1.16-.8,1.9-.8h.02l16.59,.05Z"/><path d="M107.29,147.23c.73,0,1.36,.26,1.88,.78,.52,.52,.78,1.15,.78,1.88v18.5c0,3.24-1.15,6.01-3.44,8.31s-5.06,3.44-8.29,3.44-6.01-1.15-8.31-3.44-3.44-5.06-3.44-8.31v-18.5c0-.73,.26-1.36,.78-1.88,.52-.52,1.15-.78,1.88-.78s1.36,.26,1.88,.78c.52,.52,.78,1.15,.78,1.88v18.5c0,1.77,.63,3.29,1.88,4.54,1.25,1.25,2.77,1.88,4.54,1.88s3.27-.63,4.52-1.88c1.25-1.25,1.88-2.77,1.88-4.54v-18.5c0-.73,.26-1.36,.78-1.88,.52-.52,1.15-.78,1.88-.78Z"/><path d="M142.05,170.34c-.12,2.74-1.22,5.06-3.28,6.95-2.08,1.9-4.56,2.85-7.44,2.85-2.49,0-4.73-.54-6.7-1.61-2.37-1.29-3.88-3.15-4.52-5.6-.18-.72-.09-1.4,.28-2.04,.38-.64,.93-1.06,1.65-1.24,.72-.18,1.4-.09,2.04,.28,.64,.38,1.06,.93,1.24,1.65,.28,1.03,1.02,1.83,2.25,2.41,1.1,.5,2.36,.76,3.76,.76s2.67-.45,3.7-1.35c1.04-.89,1.59-1.99,1.65-3.3,.03-.8-.25-1.51-.85-2.13-.95-1.01-2.54-1.53-4.77-1.56h-.02c-.06,0-.08,0-.04,0h-.05c-3.75-.06-6.62-1.14-8.61-3.24-1.64-1.74-2.4-3.77-2.29-6.08,.12-2.75,1.22-5.08,3.28-6.98,2.07-1.9,4.54-2.85,7.44-2.85,2.49,0,4.73,.54,6.7,1.61,2.37,1.29,3.88,3.15,4.52,5.6,.18,.72,.08,1.4-.3,2.04-.37,.64-.91,1.06-1.63,1.24-.72,.18-1.4,.09-2.04-.28-.64-.38-1.05-.93-1.24-1.65-.28-1.03-1.03-1.83-2.27-2.41-1.09-.5-2.33-.76-3.74-.76s-2.68,.45-3.72,1.35c-1.03,.9-1.57,2-1.63,3.3-.03,.8,.25,1.51,.85,2.16,.95,1,2.54,1.51,4.77,1.54h.12c3.75,.06,6.62,1.15,8.61,3.26,1.64,1.73,2.4,3.76,2.29,6.08Z"/><path d="M167.39,180.14c-4.54,0-8.42-1.61-11.63-4.84-3.23-3.21-4.84-7.09-4.84-11.63s1.61-8.43,4.84-11.66,7.09-4.82,11.63-4.82,8.43,1.61,11.66,4.82c3.21,3.23,4.82,7.11,4.82,11.66s-1.61,8.42-4.82,11.63c-3.23,3.23-7.11,4.84-11.66,4.84Zm0-27.54c-3.04,0-5.64,1.08-7.8,3.24-2.17,2.17-3.26,4.78-3.26,7.83s1.09,5.65,3.26,7.8c2.16,2.17,4.76,3.26,7.8,3.26s5.65-1.09,7.83-3.26,3.24-4.76,3.24-7.8-1.08-5.65-3.24-7.83c-2.17-2.16-4.78-3.24-7.83-3.24Z"/></g><g><path class="cls-2" d="M34.21,188.57c.13,0,.24,.04,.32,.14,.09,.09,.14,.2,.14,.32v4.22h2.07c.13,0,.24,.04,.33,.14,.09,.09,.13,.2,.13,.32s-.04,.24-.13,.32-.2,.14-.33,.14h-2.53c-.13,0-.24-.05-.32-.14-.09-.09-.14-.2-.14-.32v-4.68c0-.13,.05-.24,.14-.32,.09-.09,.2-.14,.32-.14Z"/><path class="cls-2" d="M40.14,188.57c.13,0,.24,.04,.32,.14,.09,.09,.14,.2,.14,.32v.73c0,.13-.05,.24-.14,.33-.09,.09-.2,.13-.32,.13s-.24-.04-.33-.13c-.09-.09-.13-.2-.13-.33v-.73c0-.13,.04-.24,.13-.32,.09-.09,.2-.14,.33-.14Z"/><path class="cls-2" d="M43.65,194.14c-.12-.05-.2-.13-.25-.25-.05-.12-.05-.23,0-.35l.5-1.19h0l1.44-3.47s.01-.03,.02-.04v-.02l.02-.02s0,0,.01-.02l.02-.02s0,0,.01-.02c.01-.01,.02-.02,.02-.02h.02s.02-.03,.02-.03c0,0,0,0,.02-.01l.02-.02h.02s.02-.02,.02-.02c0,0,.01,0,.03-.01,.01,0,.02-.01,.01,0,0,0,0,0,.02,0h.03l.03-.02h.2s.01,0,.03,0c.02,0,.02,0,.02,0,.03,0,.06,.02,.09,.04,0,0,0,0,.02,0l.02,.02h.02l.02,.03s0,0,.02,.01,.01,.01,.02,.02c0,0,0,0,.01,.02,.01,0,.02,.02,.02,.02v.02s.03,.02,.03,.02c0,0,0,0,.01,.02,0,0,.01,.02,.01,.02,0,.01,.01,.03,.02,.04l1.44,3.47h0l.5,1.2c.05,.12,.05,.23,0,.35-.05,.12-.13,.2-.25,.25-.06,.02-.12,.04-.18,.04-.21,0-.35-.1-.43-.29l-.38-.91h-2.26l-.38,.91c-.08,.19-.22,.29-.43,.29-.06,0-.12-.01-.18-.04Zm2.86-2.07l-.75-1.81-.75,1.81h1.5Z"/><path class="cls-2" d="M50.91,188.57c.13,0,.24,.04,.32,.14,.09,.09,.14,.2,.14,.32v4.22h2.07c.13,0,.24,.04,.33,.14,.09,.09,.13,.2,.13,.32s-.04,.24-.13,.32-.2,.14-.33,.14h-2.53c-.13,0-.24-.05-.32-.14-.09-.09-.14-.2-.14-.32v-4.68c0-.13,.05-.24,.14-.32,.09-.09,.2-.14,.32-.14Z"/><path class="cls-2" d="M58.54,194.17c-.77,0-1.43-.27-1.97-.82-.54-.55-.82-1.21-.82-1.97s.27-1.43,.82-1.97,1.2-.82,1.97-.82c.63,0,1.2,.19,1.7,.58,.1,.08,.16,.18,.18,.3,.02,.13-.02,.24-.09,.34s-.18,.16-.3,.18c-.13,.02-.24-.01-.34-.09-.33-.26-.71-.39-1.14-.39-.51,0-.95,.18-1.32,.55-.36,.36-.55,.8-.55,1.32s.18,.95,.55,1.32c.36,.36,.8,.55,1.32,.55,.48,0,.9-.16,1.26-.48,.09-.09,.2-.13,.33-.12,.13,0,.23,.06,.32,.15,.09,.09,.13,.2,.12,.33,0,.13-.05,.23-.15,.32-.53,.48-1.16,.73-1.88,.73Z"/><path class="cls-2" d="M65.53,194.17c-.77,0-1.43-.28-1.98-.82-.55-.55-.82-1.21-.82-1.98s.27-1.44,.82-1.98c.55-.55,1.21-.82,1.98-.82s1.43,.27,1.98,.82c.55,.55,.82,1.21,.82,1.98s-.27,1.43-.82,1.98c-.55,.55-1.21,.82-1.98,.82Zm0-4.69c-.52,0-.96,.18-1.33,.55-.37,.37-.55,.81-.55,1.33s.18,.96,.55,1.33c.37,.37,.81,.55,1.33,.55s.96-.19,1.33-.55c.37-.37,.55-.81,.55-1.33s-.18-.96-.55-1.33c-.37-.37-.81-.55-1.33-.55Z"/><path class="cls-2" d="M71.39,188.57c.13,0,.24,.04,.32,.14,.09,.09,.14,.2,.14,.32v4.22h2.07c.13,0,.24,.04,.33,.14,.09,.09,.13,.2,.13,.32s-.04,.24-.13,.32-.2,.14-.33,.14h-2.53c-.13,0-.24-.05-.32-.14-.09-.09-.14-.2-.14-.32v-4.68c0-.13,.05-.24,.14-.32,.09-.09,.2-.14,.32-.14Z"/><path class="cls-2" d="M81.97,194.16c-.77,0-1.43-.27-1.98-.82s-.82-1.21-.82-1.98,.27-1.43,.82-1.97c.55-.55,1.21-.82,1.98-.82,.63,0,1.2,.19,1.7,.58,.1,.08,.16,.18,.18,.31,.02,.12-.02,.24-.09,.34s-.18,.16-.3,.18c-.13,.02-.24-.01-.34-.09-.34-.26-.71-.39-1.14-.39-.52,0-.96,.18-1.32,.55-.36,.37-.55,.81-.55,1.32s.18,.96,.55,1.32c.37,.36,.81,.55,1.32,.55,.48,0,.9-.16,1.26-.49,0,0,.01-.01,.03-.02v-1.02h-1.52c-.13,0-.24-.04-.33-.13-.09-.09-.14-.2-.14-.33s.05-.24,.14-.33c.09-.09,.2-.14,.33-.14h1.99c.13,0,.24,.04,.33,.14,.09,.09,.14,.2,.14,.33v2.48c-.01,.13-.06,.24-.15,.32-.09,.09-.2,.14-.32,.14h0c-.1,0-.2-.03-.28-.1-.08-.06-.13-.14-.16-.24-.41,.21-.84,.32-1.3,.32Z"/><path class="cls-2" d="M90.09,193.25c.13,0,.24,.04,.32,.14,.09,.09,.14,.2,.14,.33s-.05,.24-.14,.32c-.09,.09-.2,.14-.32,.14h-2.83c-.13,0-.24-.05-.32-.14-.09-.09-.14-.2-.14-.32v-4.68c0-.13,.05-.24,.14-.33,.09-.09,.2-.14,.32-.14h2.83c.13,0,.24,.05,.33,.14,.09,.09,.13,.2,.13,.33s-.05,.24-.14,.32c-.09,.09-.2,.14-.32,.14h-2.36v1.41h1.7c.13,0,.24,.04,.33,.13,.09,.09,.14,.2,.14,.33s-.05,.24-.14,.33c-.09,.09-.2,.13-.33,.13h-1.7v1.42h2.36Z"/><path class="cls-2" d="M93.44,188.57c.13,0,.24,.04,.32,.14,.09,.09,.14,.2,.14,.32v4.22h2.07c.13,0,.24,.04,.33,.14,.09,.09,.13,.2,.13,.32s-.04,.24-.13,.32-.2,.14-.33,.14h-2.53c-.13,0-.24-.05-.32-.14-.09-.09-.14-.2-.14-.32v-4.68c0-.13,.05-.24,.14-.32,.09-.09,.2-.14,.32-.14Z"/><path class="cls-2" d="M98.55,194.14c-.12-.05-.2-.13-.25-.25-.05-.12-.05-.23,0-.35l.5-1.19h0l1.44-3.47s.01-.03,.02-.04v-.02l.02-.02s0,0,.01-.02l.02-.02s0,0,.01-.02c.01-.01,.02-.02,.02-.02h.02s.02-.03,.02-.03c0,0,0,0,.02-.01l.02-.02h.02s.02-.02,.02-.02c0,0,.01,0,.03-.01,.01,0,.02-.01,.01,0,0,0,0,0,.02,0h.03l.03-.02h.2s.01,0,.03,0c.02,0,.02,0,.02,0,.03,0,.06,.02,.09,.04,0,0,0,0,.02,0l.02,.02h.02l.02,.03s0,0,.02,.01,.01,.01,.02,.02c0,0,0,0,.01,.02,.01,0,.02,.02,.02,.02v.02s.03,.02,.03,.02c0,0,0,0,.01,.02,0,0,.01,.02,.01,.02,0,.01,.01,.03,.02,.04l1.44,3.47h0l.5,1.2c.05,.12,.05,.23,0,.35-.05,.12-.13,.2-.25,.25-.06,.02-.12,.04-.18,.04-.21,0-.35-.1-.43-.29l-.38-.91h-2.26l-.38,.91c-.08,.19-.22,.29-.43,.29-.06,0-.12-.01-.18-.04Zm2.86-2.07l-.75-1.81-.75,1.81h1.5Z"/><path class="cls-2" d="M106.42,189.49h-1.16c-.13,0-.24-.05-.33-.14s-.13-.2-.13-.32,.04-.24,.13-.32c.09-.09,.2-.14,.33-.14h3.25c.12,0,.23,.04,.32,.14,.09,.09,.13,.2,.13,.32s-.04,.24-.13,.32-.2,.14-.32,.14h-1.16v4.23c0,.13-.05,.24-.14,.33-.09,.09-.2,.13-.32,.13s-.24-.04-.32-.13c-.09-.09-.14-.2-.14-.33v-4.23Z"/><path class="cls-2" d="M113.63,194.17c-.77,0-1.43-.28-1.98-.82-.55-.55-.82-1.21-.82-1.98s.27-1.44,.82-1.98c.55-.55,1.21-.82,1.98-.82s1.43,.27,1.98,.82c.55,.55,.82,1.21,.82,1.98s-.27,1.43-.82,1.98c-.55,.55-1.21,.82-1.98,.82Zm0-4.69c-.52,0-.96,.18-1.33,.55-.37,.37-.55,.81-.55,1.33s.18,.96,.55,1.33c.37,.37,.81,.55,1.33,.55s.96-.19,1.33-.55c.37-.37,.55-.81,.55-1.33s-.18-.96-.55-1.33c-.37-.37-.81-.55-1.33-.55Z"/><path class="cls-2" d="M124.01,188.56c.48,0,.9,.16,1.24,.48,.34,.32,.52,.71,.52,1.16s-.17,.82-.5,1.14c-.33,.31-.73,.48-1.2,.5h-1.23v1.88c0,.13-.04,.24-.13,.32s-.2,.14-.33,.14-.24-.05-.32-.14c-.09-.09-.14-.2-.14-.32v-4.69c0-.13,.05-.24,.14-.32,.09-.09,.2-.14,.32-.14h1.63Zm.03,2.35c.22,0,.41-.08,.57-.21,.16-.14,.23-.31,.23-.5s-.08-.36-.24-.5-.36-.21-.59-.21h-1.17v1.43h1.2Z"/><path class="cls-2" d="M130.64,194.17c-.77,0-1.43-.28-1.98-.82-.55-.55-.82-1.21-.82-1.98s.27-1.44,.82-1.98c.55-.55,1.21-.82,1.98-.82s1.43,.27,1.98,.82c.55,.55,.82,1.21,.82,1.98s-.27,1.43-.82,1.98c-.55,.55-1.21,.82-1.98,.82Zm0-4.69c-.52,0-.96,.18-1.33,.55-.37,.37-.55,.81-.55,1.33s.18,.96,.55,1.33c.37,.37,.81,.55,1.33,.55s.96-.19,1.33-.55c.37-.37,.55-.81,.55-1.33s-.18-.96-.55-1.33c-.37-.37-.81-.55-1.33-.55Z"/><path class="cls-2" d="M138.12,188.56c.48,0,.9,.16,1.24,.48,.34,.32,.52,.71,.52,1.16s-.17,.82-.5,1.14c-.33,.31-.73,.48-1.2,.5h-1.23v1.88c0,.13-.04,.24-.13,.32s-.2,.14-.33,.14-.24-.05-.32-.14c-.09-.09-.14-.2-.14-.32v-4.69c0-.13,.05-.24,.14-.32,.09-.09,.2-.14,.32-.14h1.63Zm.03,2.35c.22,0,.41-.08,.57-.21,.16-.14,.23-.31,.23-.5s-.08-.36-.24-.5-.36-.21-.59-.21h-1.17v1.43h1.2Z"/><path class="cls-2" d="M145.79,192.51c-.02,.47-.21,.86-.56,1.18-.35,.32-.78,.48-1.27,.48-.42,0-.8-.09-1.14-.27-.4-.22-.66-.54-.77-.95-.03-.12-.02-.24,.05-.35,.07-.11,.16-.18,.28-.21s.24-.02,.35,.05c.11,.06,.18,.16,.21,.28,.05,.17,.17,.31,.38,.41,.19,.09,.4,.13,.64,.13s.45-.08,.63-.23c.18-.15,.27-.34,.28-.56,0-.14-.04-.26-.14-.36-.16-.17-.43-.26-.81-.27h0s-.01,0,0,0h0c-.64-.01-1.13-.19-1.46-.55-.28-.3-.41-.64-.39-1.04,.02-.47,.21-.87,.56-1.19,.35-.32,.77-.48,1.27-.48,.42,0,.8,.09,1.14,.27,.4,.22,.66,.54,.77,.95,.03,.12,.01,.24-.05,.35-.06,.11-.16,.18-.28,.21s-.24,.02-.35-.05c-.11-.07-.18-.16-.21-.28-.05-.17-.18-.31-.39-.41-.18-.09-.4-.13-.64-.13s-.46,.08-.63,.23c-.17,.15-.27,.34-.28,.56,0,.13,.04,.26,.14,.37,.16,.17,.43,.26,.81,.26h.02c.64,0,1.13,.2,1.46,.55,.28,.29,.41,.64,.39,1.04Z"/></g><g><path d="M18.5,102.02c0-.31,.11-.58,.34-.81,.22-.22,.49-.33,.81-.33s.58,.11,.79,.34c.22,.22,.34,.48,.34,.8h0l-.02,5.8h3.48v-4.18c0-.31,.11-.58,.33-.81,.22-.22,.49-.34,.81-.34s.58,.11,.81,.34c.22,.22,.33,.49,.33,.81v4.18h4.62c.31,0,.58,.11,.8,.33,.22,.22,.34,.49,.34,.81s-.11,.58-.34,.8c-.22,.22-.48,.34-.8,.34h-11.5c-.32,0-.59-.11-.81-.34-.22-.22-.34-.48-.34-.8h0l.02-6.94Z"/><path d="M22.48,82.8c.84,0,1.61,.26,2.29,.79,.68,.5,1.16,1.17,1.45,1.99l4.41-2.18c.27-.13,.56-.15,.85-.05,.29,.1,.51,.28,.65,.57,.08,.16,.12,.33,.12,.5,0,.47-.21,.8-.63,1.01l-5.15,2.54v1.95h4.57c.31,0,.57,.11,.8,.34,.22,.22,.33,.48,.33,.8s-.11,.57-.33,.8c-.22,.22-.49,.33-.8,.33h-11.43c-.31,0-.58-.11-.8-.33s-.34-.49-.34-.8v-3.97c0-1.18,.39-2.19,1.17-3.02,.78-.84,1.72-1.26,2.83-1.26Zm1.74,4.2c-.02-.54-.2-1-.53-1.38-.34-.38-.74-.57-1.21-.57s-.9,.2-1.24,.59-.51,.87-.51,1.43v2.84h3.48v-2.91Z"/><path d="M32.25,67.21c0,1.9-.67,3.52-2.02,4.86-1.34,1.35-2.96,2.02-4.86,2.02s-3.52-.67-4.87-2.02c-1.34-1.34-2.01-2.96-2.01-4.86s.67-3.52,2.01-4.87c1.35-1.34,2.97-2.01,4.87-2.01s3.52,.67,4.86,2.01c1.35,1.35,2.02,2.97,2.02,4.87Zm-11.51,0c0,1.27,.45,2.36,1.35,3.26,.91,.91,2,1.36,3.27,1.36s2.36-.45,3.26-1.36c.91-.9,1.36-1.99,1.36-3.26s-.45-2.36-1.36-3.27c-.9-.9-1.99-1.35-3.26-1.35s-2.36,.45-3.27,1.35c-.9,.91-1.35,2-1.35,3.27Z"/><path d="M26.01,37.52c.47-.02,.82,.17,1.04,.58l5.89,10.77,2.54-5.92c.12-.29,.33-.49,.61-.6,.29-.12,.58-.11,.87,0s.49,.33,.6,.62c.12,.29,.12,.58,0,.86l-3.46,8.05c-.19,.43-.51,.67-.99,.69-.47,.02-.82-.18-1.05-.6l-5.89-10.77-2.54,5.91c-.12,.29-.33,.49-.62,.61-.29,.12-.58,.11-.87,0-.29-.12-.49-.33-.6-.62-.12-.29-.11-.58,0-.87l3.46-8.05c.18-.43,.51-.66,.99-.68Z"/><path d="M46.3,28.22c.21-.23,.47-.36,.78-.38,.32-.02,.59,.07,.83,.28,.24,.21,.36,.47,.38,.78,.02,.31-.07,.58-.27,.82l-4.59,5.21c-.21,.23-.47,.36-.78,.38-.31,.02-.58-.07-.82-.27l-8.63-7.6c-.24-.21-.37-.47-.38-.78-.02-.31,.07-.58,.27-.82h0l4.6-5.2c.21-.23,.47-.36,.78-.38,.31-.02,.58,.08,.82,.29s.36,.47,.38,.78c.02,.31-.07,.58-.27,.82h0l-3.84,4.34,2.61,2.3,2.76-3.14c.21-.23,.47-.36,.78-.39,.32-.02,.59,.07,.83,.28,.24,.21,.36,.47,.38,.78,.02,.31-.08,.58-.29,.82l-2.76,3.14,2.61,2.3,3.83-4.35Z"/><path d="M62.81,18.72h-.01l-10.34-4.39,3.98,7.14c.15,.27,.18,.56,.09,.86-.08,.3-.26,.53-.53,.68-.27,.15-.56,.18-.86,.09-.3-.08-.53-.26-.68-.53l-5.59-10.03c-.12-.21-.16-.44-.13-.67,.03-.24,.12-.45,.29-.63,.16-.18,.35-.3,.59-.35,.24-.05,.46-.03,.69,.07l10.34,4.4-3.99-7.15c-.15-.27-.19-.56-.1-.85,.09-.3,.27-.53,.54-.69,.27-.15,.56-.18,.86-.09,.3,.08,.53,.26,.68,.53l5.6,10.05s.01,.03,.02,.06l.02,.04s.01,.03,.02,.05c.01,.02,.02,.04,.02,.06l.02,.05s.01,.05,.01,.06c0,0,0,.02,0,.05,0,.03,.01,.05,.01,.06v.11s0,.04,0,.06v.04s-.01,.04-.02,.07v.05l-.02,.05s0,.05-.01,.05c0,0,0,.02-.01,.05,0,.03-.01,.04-.02,.06,.01-.02,0-.02,0,.01h0c-.03,.07-.05,.12-.08,.17h0c-.03,.05-.07,.1-.1,.14-.02,.02-.02,.03-.01,.02-.04,.04-.08,.08-.12,.11l-.02,.02s-.09,.06-.14,.09c-.03,.02-.07,.04-.11,.05,.01,0,0,0-.02,0-.04,.01-.07,.02-.09,.03,0,0,0,0-.04,.01-.03,.01-.06,.02-.08,.02,0,0-.02,0-.04,0-.03,.01-.06,.01-.08,.01-.01,0-.03,0-.04,0-.03,0-.05,0-.07,0-.02,0-.04,0-.05,0-.02,0-.05,0-.08,0-.02,0-.04,0-.05,0-.04,0-.08-.01-.11-.02h-.02s-.07-.03-.1-.05Z"/><path d="M90.01,13.7c-1.89-.03-3.49-.73-4.81-2.09-1.31-1.37-1.95-2.99-1.92-4.88,.03-1.89,.73-3.49,2.09-4.81C86.74,.61,88.37-.03,90.25,0c1.55,.03,2.94,.52,4.16,1.49,.24,.2,.38,.45,.42,.75,.03,.31-.05,.59-.24,.84s-.45,.39-.76,.42c-.31,.03-.59-.05-.84-.24-.81-.65-1.73-.98-2.77-1-1.26-.02-2.34,.41-3.25,1.29-.91,.88-1.38,1.95-1.4,3.22-.02,1.26,.41,2.34,1.29,3.25,.88,.91,1.95,1.38,3.21,1.4,1.19,.02,2.22-.36,3.11-1.13,.23-.21,.51-.3,.82-.28,.31,.02,.57,.15,.78,.39,.21,.23,.3,.51,.28,.82-.02,.31-.14,.57-.38,.78-1.33,1.17-2.88,1.73-4.65,1.7Z"/><path d="M109.13,16.93c-1.8-.61-3.12-1.76-3.96-3.47-.85-1.7-.97-3.45-.37-5.25,.61-1.8,1.76-3.12,3.47-3.97,1.7-.84,3.45-.96,5.25-.36,1.8,.61,3.12,1.76,3.97,3.46,.84,1.71,.96,3.46,.35,5.26-.61,1.8-1.76,3.12-3.46,3.96-1.71,.85-3.46,.97-5.26,.36Zm3.67-10.9c-1.21-.41-2.38-.33-3.52,.24-1.15,.57-1.93,1.46-2.33,2.66-.41,1.21-.32,2.38,.25,3.52,.56,1.15,1.45,1.92,2.66,2.33,1.21,.41,2.38,.32,3.53-.25,1.14-.57,1.92-1.45,2.32-2.66,.41-1.21,.33-2.38-.24-3.53-.57-1.14-1.46-1.92-2.67-2.32Z"/><path d="M127.7,27.13c-1.46-1.19-2.3-2.72-2.5-4.6-.19-1.88,.3-3.56,1.49-5.02,1.19-1.47,2.73-2.3,4.61-2.5,1.89-.2,3.56,.3,5.03,1.48,1.21,.98,1.99,2.22,2.36,3.73,.07,.3,.02,.59-.14,.85-.17,.27-.4,.44-.71,.51-.31,.07-.59,.03-.85-.14-.27-.17-.44-.4-.52-.7-.24-1.01-.76-1.84-1.57-2.49-.98-.79-2.1-1.12-3.36-.99-1.26,.13-2.29,.69-3.08,1.67-.79,.98-1.12,2.1-.99,3.36s.69,2.28,1.67,3.08c.92,.75,1.97,1.09,3.15,1.02,.31-.02,.58,.08,.82,.28s.36,.47,.38,.79c.02,.31-.08,.59-.28,.82s-.47,.36-.78,.38c-1.77,.1-3.34-.41-4.71-1.52Z"/><path d="M137.59,37.59c-.16-.26-.2-.55-.12-.86,.07-.3,.24-.53,.51-.68l9.78-5.84c.26-.16,.54-.2,.84-.12,.31,.08,.54,.25,.7,.51,.16,.26,.2,.55,.12,.85-.08,.3-.25,.53-.51,.68l-4.33,2.59,7.76,1.75c.3,.07,.54,.23,.71,.49,.16,.26,.21,.54,.14,.85-.07,.3-.23,.53-.49,.69-.26,.17-.54,.22-.85,.15l-6.52-1.47-1.87,6.69c-.09,.3-.27,.52-.53,.68s-.55,.19-.85,.11c-.29-.08-.51-.25-.66-.51-.16-.27-.21-.57-.12-.88l1.84-6.58-1.35-.3-2.65,1.58c-.26,.16-.54,.2-.84,.12-.31-.08-.54-.25-.7-.51Z"/><path d="M156.49,53.38l-.5-2.8c-.05-.31,0-.59,.19-.85,.18-.25,.42-.41,.73-.46,.31-.06,.59,0,.84,.18,.26,.18,.42,.43,.47,.73l1.4,7.84c.05,.3,0,.58-.19,.84-.18,.25-.42,.41-.73,.46-.31,.06-.59,0-.84-.18-.26-.18-.42-.42-.47-.73l-.5-2.81-10.21,1.82c-.31,.06-.59,0-.85-.19-.25-.18-.41-.42-.46-.73-.05-.31,0-.59,.18-.84,.18-.26,.43-.42,.73-.47l10.21-1.82Z"/><path d="M146.12,69.52c.12-.29,.33-.49,.61-.61,.29-.12,.58-.12,.86,0l2.92,1.22h0l8.51,3.53s.06,.03,.1,.05l.05,.02s.04,.03,.05,.04c0,0,.02,0,.05,.03l.04,.04s.02,0,.04,.03c.03,.03,.04,.04,.05,.04,0,0,.02,.02,.03,.04,.03,.03,.04,.04,.04,.05,0,0,0,0,.03,.04,.02,.03,.03,.04,.04,.05l.03,.04s.03,.05,.03,.06c0,.01,.02,.04,.03,.07,.02,.03,.03,.04,.02,.03,0-.01,0,0,.02,.04,0,.03,.01,.05,.02,.07,0,0,0,.03,.02,.07v.04s.01,.04,.02,.07v.37s-.02,.03-.03,.07c0,.04,0,.05,0,.04-.02,.08-.05,.15-.09,.21,0,0,0,0-.02,.04-.02,.03-.03,.05-.04,.06l-.03,.04s-.03,.04-.04,.05c0,0,0,.02-.03,.04-.02,.02-.03,.04-.04,.05,0,0-.02,0-.04,.03-.03,.03-.04,.04-.05,.04l-.04,.03s-.04,.04-.05,.04c0,0-.02,0-.05,.03-.03,.02-.04,.03-.05,.03-.03,.02-.06,.04-.1,.05l-8.51,3.53h0l-2.92,1.22c-.29,.12-.58,.12-.86,0-.29-.12-.49-.33-.61-.61-.06-.14-.09-.28-.09-.43,0-.5,.23-.85,.7-1.04l2.22-.92v-5.55l-2.22-.92c-.47-.19-.7-.54-.7-1.05,0-.15,.03-.29,.09-.43Zm5.09,7.02l4.45-1.85-4.45-1.84v3.69Z"/><path d="M146.03,90.7c0-.31,.11-.58,.34-.8,.22-.22,.48-.34,.8-.34h11.44c.31,0,.58,.11,.8,.34,.22,.22,.34,.48,.34,.8s-.11,.58-.34,.8c-.22,.22-.48,.34-.8,.34h-11.44c-.31,0-.58-.11-.8-.34-.22-.22-.34-.48-.34-.8Z"/><path d="M159.78,103.4c0,.31-.11,.58-.34,.8-.22,.22-.48,.34-.8,.34h-10.36v5.07c0,.31-.11,.58-.33,.8s-.48,.33-.8,.33-.58-.11-.8-.33c-.22-.22-.34-.49-.34-.8v-6.2c0-.31,.11-.58,.34-.8,.22-.22,.48-.34,.8-.34h11.49c.31,0,.58,.11,.8,.34,.22,.22,.34,.48,.34,.8Z"/></g><circle class="cls-2" cx="24.99" cy="126.65" r="3.2"/><circle class="cls-2" cx="152.07" cy="126.65" r="3.2"/></svg>