<svg xmlns="http://www.w3.org/2000/svg" xmlns:xlink="http://www.w3.org/1999/xlink" id="Layer_1" x="0px" y="0px" viewBox="0 0 360 360" style="enable-background:new 0 0 360 360;" xml:space="preserve"> <style type="text/css"> .st0{fill:url(#SVGID_1_);} .st1{fill:#00C1FD;} .st2{fill:#1747C4;} </style> <g> <linearGradient id="SVGID_1_" gradientUnits="userSpaceOnUse" x1="-6.8152" y1="364.1581" x2="321.6006" y2="40.0636"> <stop offset="0" style="stop-color:#09D7E7"></stop> <stop offset="0.3154" style="stop-color:#0EA6DB"></stop> <stop offset="0.7814" style="stop-color:#1462CA"></stop> <stop offset="1" style="stop-color:#1747C4"></stop> </linearGradient> <path class="st0" d="M334.4,84.4l-9.2,9.2c14,24,22,51.9,22,81.7v9.5c0,89.7-73,162.7-162.7,162.7H12.3V175.3 c0-89.7,73-162.7,162.7-162.7h9.5c29.8,0,57.7,8,81.7,22l9.2-9.2C248.9,9.3,217.8,0,184.5,0h-9.5C78.4,0-0.2,78.6-0.2,175.3V360 h184.7c96.6,0,175.3-78.6,175.3-175.3v-9.5C359.8,142,350.5,110.9,334.4,84.4z"></path> <path class="st1" d="M231.8,69l9.4-9.4c-18.4-9.4-39.3-14.8-61.3-14.8c-74.5,0-135.1,60.6-135.1,135.1v24.1l5-0.4 c2.6-0.2,5.1-0.5,7.5-0.7V180c0-67.6,55-122.6,122.6-122.6C198.4,57.4,216,61.6,231.8,69z"></path> <path class="st1" d="M314.9,180c0-22.1-5.4-42.9-14.8-61.3l-9.4,9.4c7.4,15.8,11.6,33.4,11.6,52c0,67.6-55,122.6-122.6,122.6h-22.9 c-0.3,2.5-0.5,5-0.7,7.5l-0.4,5h24.1C254.3,315.1,314.9,254.5,314.9,180z"></path> <path d="M86,278.2l-24.3,24.3l-12.5,12.5L29,335.2c21.6-8.7,41.9-15.4,60.9-20.1c19.8-4.8,38.1-7.5,55.2-8c0.1-1.5,0.3-3,0.4-4.6 c3.5-36.4,13.5-68.6,34.9-93.1l-15-15l-15-15c-24.6,21.4-56.7,31.3-93.1,34.9c-1.5,0.1-3,0.3-4.6,0.4c-0.5,17-3.1,35.4-8,55.2 c-4.7,19-11.4,39.3-20.1,60.9l20.1-20.1l12.5-12.5l24.3-24.3c-5.1-7.2-4.5-17.3,2-23.8c7.2-7.2,19-7.2,26.2,0 c7.2,7.2,7.2,19,0,26.2C103.3,282.7,93.2,283.4,86,278.2z"></path> <polygon class="st2" points="185.4,204.4 189.6,200.2 195.3,194.5 165.3,164.4 159.6,170.2 155.4,174.4 "></polygon> <polygon points="250.1,64.7 240.9,73.8 166.1,148.7 211.1,193.7 286,118.9 295.1,109.7 319.8,85 328.9,76 329.3,75.5 326.7,73 286.8,33.1 284.3,30.5 283.8,30.9 274.8,40 "></polygon> </g> </svg>