<svg xmlns="http://www.w3.org/2000/svg" xmlns:xlink="http://www.w3.org/1999/xlink" id="Layer_1" x="0px" y="0px" viewBox="0 0 360 360" style="enable-background:new 0 0 360 360;" xml:space="preserve"> <style type="text/css"> .st0{fill:url(#SVGID_1_);} .st1{fill:#FFFFFF;stroke:#000000;stroke-width:5.2243;stroke-linecap:round;stroke-linejoin:round;} .st2{fill:url(#SVGID_00000027565570592981606140000007343543668853196714_);} .st3{fill:#1747C4;} .st4{fill:none;} </style> <linearGradient id="SVGID_1_" gradientUnits="userSpaceOnUse" x1="179.9017" y1="244.4295" x2="179.9017" y2="-2.154"> <stop offset="0" style="stop-color:#09D7E7"></stop> <stop offset="0.3154" style="stop-color:#0EA6DB"></stop> <stop offset="0.7814" style="stop-color:#1462CA"></stop> <stop offset="1" style="stop-color:#1747C4"></stop> </linearGradient> <path class="st0" d="M2.8,139.1L167.8,4.2c6.8-5.5,17.5-5.5,24.3,0L357,139.1L246.2,331.3H109.7L2.8,139.1z"></path> <g> <polygon class="st1" points="62.8,23.6 257.1,23.6 297,23.6 297,276.3 62.8,276.3 "></polygon> </g> <linearGradient id="SVGID_00000049221722107250296950000001106484868546649984_" gradientUnits="userSpaceOnUse" x1="2.8279" y1="248.1026" x2="356.9765" y2="248.1026"> <stop offset="0" style="stop-color:#09D7E7"></stop> <stop offset="0.3154" style="stop-color:#0EA6DB"></stop> <stop offset="0.7814" style="stop-color:#1462CA"></stop> <stop offset="1" style="stop-color:#1747C4"></stop> </linearGradient> <path style="fill:url(#SVGID_00000049221722107250296950000001106484868546649984_);" d="M192,274c-6.8,5.5-17.5,5.5-24.3,0 L2.8,139.1v218H357v-218L192,274z"></path> <g> <path class="st3" d="M244.1,142.1c-0.5,9.9-3.8,18.4-10,25.6c-6.2,7.1-15.4,10.7-27.6,10.7c-4.1,0-7.6-1-10.5-2.9 c-2.9-1.9-5.1-4.6-6.3-8.2c-2.8,3.7-6.2,6.5-10.2,8.3c-4,1.8-8.7,2.7-14,2.7c-6.9,0-12.3-2.8-16.2-8.4c-3.8-5.6-5.2-12.9-4.2-22 c1.3-12,5.1-21.6,11.5-28.8c6.4-7.2,14.1-10.9,23.3-10.9c5.8,0,10.5,0.6,14.1,1.8c3.6,1.2,7.4,3.1,11.6,5.5l-0.3,0.3h0.5l-4.2,40.6 c-0.5,5.1,0.1,8.6,1.8,10.5c1.7,1.9,4,2.9,6.8,2.9c6.8,0,12.3-2.6,16.4-7.9c4.1-5.2,6.4-11.9,6.8-20c0.9-17.6-3.1-31.4-12-41.2 c-8.9-9.9-22.7-14.8-41.3-14.8c-17.1,0-30.9,5.3-41.3,16c-10.4,10.7-16,24.6-16.9,41.7c-1,17.4,3.2,31.1,12.5,41.2 c9.3,10.1,22.7,15.1,40.1,15.1c4.9,0,9.8-0.5,14.9-1.5c5-1,9.3-2.3,12.7-3.9l3.2,7.4c-3.7,1.9-8.5,3.5-14.2,4.5 c-5.7,1.1-11.4,1.6-16.9,1.6c-21.1,0-37.4-5.8-48.9-17.3c-11.5-11.5-16.8-27.3-15.8-47.3c1.1-19.6,8-35.5,20.7-47.7 c12.8-12.3,29.5-18.4,50.1-18.4c21,0,37.2,5.8,48.4,17.3C239.9,106.6,245,122.3,244.1,142.1z M159.8,148.1c-0.6,6.6,0,11.6,1.8,15 c1.8,3.4,4.8,5.1,8.9,5.1c3.6,0,6.8-0.6,9.7-1.7c2.9-1.1,5.6-3.2,8.1-6.1c-0.1-0.6-0.1-1.1,0-1.8c0-0.6,0.1-1.3,0.2-2l3.9-37.3 c-1.4-0.6-3-1-4.5-1.3c-1.6-0.3-3.2-0.5-5-0.5c-6.9,0-12.2,2.5-15.9,7.6C163.3,130.2,160.9,137.8,159.8,148.1z"></path> </g> <path class="st4" d="M192,274c-6.8,5.5-17.5,5.5-24.3,0L2.8,139.1v218H357v-218L192,274z"></path> <path class="st3" d="M357,357.1H2.8l130.5-79.3c27.8-16.9,65.3-16.9,93.1,0L357,357.1z"></path> </svg>