<svg xmlns="http://www.w3.org/2000/svg" xmlns:xlink="http://www.w3.org/1999/xlink" id="Layer_1" x="0px" y="0px" viewBox="0 0 360 360" style="enable-background:new 0 0 360 360;" xml:space="preserve"> <style type="text/css"> .st0{fill-rule:evenodd;clip-rule:evenodd;} .st1{fill-rule:evenodd;clip-rule:evenodd;fill:#FFFFFF;} .st2{fill-rule:evenodd;clip-rule:evenodd;fill:url(#SVGID_1_);} </style> <g> <path class="st0" d="M129.8,65.7h9.1h82.2h9.1c5.7,0,11.6,6.1,13.2,13.6l3.7,17.4h88.6c13.4,0,24.3,10.9,24.3,24.2v188.9 c0,13.4-10.9,24.2-24.3,24.2H24.3C11,334,0.1,323.1,0.1,309.8V120.9c0-13.3,10.9-24.2,24.2-24.2h10.2l2-10.3 c0.6-2.9,2.7-5.3,4.7-5.3h3.3h29.2h3.2c2,0,4.1,2.4,4.7,5.3l2,10.3h29.3l3.7-17.4C118.2,71.8,124.1,65.7,129.8,65.7L129.8,65.7z"></path> <path class="st1" d="M180,129.5c49.4,0,89.4,40,89.4,89.4c0,49.3-40,89.3-89.4,89.3c-49.3,0-89.3-40-89.3-89.3 C90.7,169.5,130.7,129.5,180,129.5L180,129.5z"></path> <linearGradient id="SVGID_1_" gradientUnits="userSpaceOnUse" x1="98.3448" y1="218.9215" x2="261.7155" y2="218.9215"> <stop offset="0" style="stop-color:#09D7E7"></stop> <stop offset="0.3154" style="stop-color:#0EA6DB"></stop> <stop offset="0.7814" style="stop-color:#1462CA"></stop> <stop offset="1" style="stop-color:#1747C4"></stop> </linearGradient> <path class="st2" d="M237.8,161.2c-14.8-14.8-35.2-23.9-57.8-23.9c-22.6,0-43,9.1-57.7,23.9C107.5,176,98.3,196.4,98.3,219 c0,22.5,9.1,42.9,23.9,57.7c14.7,14.8,35.2,23.9,57.7,23.9c22.6,0,43-9.1,57.8-23.9c14.8-14.8,23.9-35.2,23.9-57.7 C261.7,196.4,252.6,176,237.8,161.2L237.8,161.2z"></path> <path class="st1" d="M48,117.2h22.1c2.8,0,5.2,2.3,5.2,5.2v0.1c0,2.8-2.3,5.2-5.2,5.2H48c-2.9,0-5.2-2.3-5.2-5.2v-0.1 C42.8,119.5,45.2,117.2,48,117.2L48,117.2z"></path> <path class="st1" d="M211.9,164.4c-2.4-1.3-3.3-4.2-2-6.6c1.2-2.4,4.2-3.3,6.6-2c7.4,4,13.7,9.5,18.7,15.9c5,6.5,8.6,14,10.6,22.2 c0.7,2.6-1,5.3-3.6,5.9c-2.6,0.7-5.3-1-5.9-3.6c-1.6-6.8-4.7-13-8.9-18.5C223.3,172.3,218,167.7,211.9,164.4L211.9,164.4z"></path> </g> </svg>