<svg xmlns="http://www.w3.org/2000/svg" xmlns:xlink="http://www.w3.org/1999/xlink" id="Layer_1" x="0px" y="0px" viewBox="0 0 360 360" style="enable-background:new 0 0 360 360;" xml:space="preserve"> <style type="text/css"> .st0{fill:#FFFFFF;stroke:#000000;stroke-width:4.051;stroke-linecap:round;stroke-linejoin:round;} .st1{fill:url(#SVGID_1_);} </style> <g> <path class="st0" d="M92,284.8V351h176.5v-66.2v-44.1H92V284.8z"></path> <polygon class="st0" points="268.6,86.2 268.6,20 92,20 92,86.2 92,130.3 268.6,130.3 "></polygon> <linearGradient id="SVGID_1_" gradientUnits="userSpaceOnUse" x1="180.2953" y1="288.0921" x2="180.2953" y2="96.3022"> <stop offset="0" style="stop-color:#09D7E7"></stop> <stop offset="0.3154" style="stop-color:#0EA6DB"></stop> <stop offset="0.7814" style="stop-color:#1462CA"></stop> <stop offset="1" style="stop-color:#1747C4"></stop> </linearGradient> <path class="st1" d="M312.7,86.2h-22.1v44.1v22.1H70v-22.1V86.2H47.9c-22.1,0-44.1,22.1-44.1,44.1v110.3 c0,22.1,22.1,44.1,44.1,44.1H70v-44.1v-22.1h220.7v22.1v44.1h22.1c22.1,0,44.1-22.1,44.1-44.1V130.3 C356.8,108.3,334.8,86.2,312.7,86.2z"></path> </g> <rect x="111.7" y="259.4" width="139.1" height="12.2"></rect> <rect x="111.7" y="289.7" width="139.1" height="12.2"></rect> <rect x="111.7" y="320" width="139.1" height="12.2"></rect> <rect x="163.7" y="38.8" width="87" height="12.2"></rect> <rect x="111.7" y="69.1" width="139.1" height="12.2"></rect> <rect x="111.7" y="99.4" width="139.1" height="12.2"></rect> </svg>