<?xml version="1.0" encoding="utf-8"?>
<!-- Generator: Adobe Illustrator 27.1.1, SVG Export Plug-In . SVG Version: 6.00 Build 0)  -->
<svg version="1.1" id="Layer_1" xmlns="http://www.w3.org/2000/svg" xmlns:xlink="http://www.w3.org/1999/xlink" x="0px" y="0px"
	 viewBox="0 0 360 360" style="enable-background:new 0 0 360 360;" xml:space="preserve">
<style type="text/css">
	.st0{fill:url(#SVGID_1_);}
	.st1{fill:#FFFFFF;}
</style>
<g>
	<path d="M262.6,141.5L262.6,141.5c0-3.3-0.3-6.6-0.7-9.8c0-0.1,0-0.1,0-0.1l0,0c-7.4-62.3-60-109.7-123.8-109.7
		c-68.8,0-124.7,56-124.7,124.7c0,66.8,52.8,121.3,118.8,124.4v41.9c0,9.8,8,17.8,17.8,17.8h53.5c9.8,0,17.8-8,17.8-17.8v-101
		c0-9.8-8-17.8-17.8-17.8h-2.7c3.8-13,5.9-26.9,6.4-41.6h39.8c0,0,14.9,10.2,15.8,4.6C263.1,154.2,262.9,147.3,262.6,141.5z
		 M115.4,36c-2,1.7-4.1,3.6-6.2,5.7c-2.2-0.9-4.5-1.5-7-1.5c-0.7,0-1.4,0.1-2.1,0.2C105,38.6,110.1,37.1,115.4,36z M102.2,52.1
		c3.3,0,5.9,2.7,5.9,5.9c0,3.3-2.7,5.9-5.9,5.9c-3.3,0-5.9-2.7-5.9-5.9C96.2,54.7,98.9,52.1,102.2,52.1z M91.5,43.9
		c-4.3,3.3-7.1,8.4-7.1,14.1c0,4.1,1.5,7.8,3.8,10.9c-1.3,2.2-2.5,4.4-3.7,6.7c-7.2-3.9-14-8.7-20.3-14.2
		C72.3,54.3,81.5,48.4,91.5,43.9z M132.1,100.7v39.9H80.8v0c0.6-17.8,3.8-34.2,9.6-49C103.5,97,117.6,100.1,132.1,100.7z M55.6,69.7
		c7.4,6.6,15.4,12.2,24,16.8c-6.5,16.4-10.1,34.5-10.7,54.1H25.5C26.9,113.3,38.1,88.5,55.6,69.7z M25.5,152.5h43.4
		c0.6,21.4,4.7,39.4,10.6,54.2c-8.6,4.6-16.6,10.2-23.9,16.6C38,204.5,26.9,179.8,25.5,152.5z M64.1,231.6c6.2-5.4,13-10.1,20.3-14
		c9.2,18.3,20.8,31,30.8,39.5C95.8,253.1,78.4,244.1,64.1,231.6z M132.1,211.9V255c-9.5-6.5-25.2-19.8-36.8-42.5
		c1.3-0.5,2.7-1.1,4-1.6c3.2,4.6,8.6,7.7,14.6,7.7c8.6,0,15.8-6.1,17.4-14.2c0.2,0,0.5,0,0.7,0V211.9z M108,200.7
		c0-3.3,2.7-5.9,5.9-5.9c3.3,0,5.9,2.7,5.9,5.9c0,3.3-2.7,5.9-5.9,5.9C110.6,206.6,108,204,108,200.7z M132.1,192.4
		c-0.8,0-1.6,0.1-2.4,0.1c-3-5.7-8.9-9.6-15.7-9.6c-9.4,0-17,7.3-17.7,16.5c-2,0.7-3.9,1.4-5.8,2.3c-5.3-13.5-9-29.7-9.7-49.1h51.4
		V192.4z M132.1,88.9c-12.8-0.7-25.3-3.4-36.9-8.1c0.9-1.8,1.9-3.6,3-5.4c1.3,0.3,2.6,0.5,4,0.5c9.8,0,17.8-8,17.8-17.8
		c0-3-0.8-5.8-2.1-8.2c5.3-5.1,10.3-9,14.2-11.6V88.9z M212,61.3c-6.3,5.5-13.2,10.3-20.4,14.3c-9.2-18.3-20.9-31.1-30.8-39.6
		C180.2,39.9,197.6,48.9,212,61.3z M144,38.2c9.5,6.5,25.3,19.7,36.9,42.6c-11.6,4.8-24.1,7.5-36.9,8.1V38.2z M144,100.7
		c14.5-0.7,28.6-3.7,41.7-9.2c1.4,3.5,2.6,7.2,3.8,11.1c-4.8,3.2-7.9,8.6-7.9,14.8c0,8.3,5.8,15.3,13.5,17.2c0.1,2,0.2,3.9,0.3,5.9
		H144V100.7z M144,152.5h51.2c-0.5,14.8-2.8,28.8-6.9,41.6h-38.4c-2.1,0-4.1,0.4-5.9,1.1V152.5z M203.4,206c3.3,0,5.9,2.7,5.9,5.9
		v101c0,3.3-2.7,5.9-5.9,5.9h-53.5c-3.3,0-5.9-2.7-5.9-5.9v-47.5v-53.5c0-3.3,2.7-5.9,5.9-5.9H203.4z M199.3,123.4
		c-3.3,0-5.9-2.7-5.9-5.9c0-3.3,2.7-5.9,5.9-5.9c3.3,0,5.9,2.7,5.9,5.9C205.2,120.7,202.6,123.4,199.3,123.4z M207.2,140.6
		c-0.1-2.4-0.2-4.7-0.4-7.1c6.1-2.9,10.3-9,10.3-16.1c0-9.3-7.1-16.8-16.2-17.7c-1.3-4.7-2.9-9.1-4.5-13.3
		c8.6-4.6,16.7-10.3,24.1-16.9c17.5,18.7,28.7,43.5,30.1,71H207.2z"/>
	<linearGradient id="SVGID_1_" gradientUnits="userSpaceOnUse" x1="220.8846" y1="230.7169" x2="347.7174" y2="230.7169">
		<stop  offset="0" style="stop-color:#09D7E7"/>
		<stop  offset="0.3154" style="stop-color:#0EA6DB"/>
		<stop  offset="0.7814" style="stop-color:#1462CA"/>
		<stop  offset="1" style="stop-color:#1747C4"/>
	</linearGradient>
	<path class="st0" d="M320.9,206.1h-36c-3.3,0-5.9-2.7-5.9-5.9v-30.9c0-12.2-9.9-22.1-22.1-22.1c-12.2,0-22.1,9.9-22.1,22.1v25.3
		c0,11.2-2.7,20.3-13.7,21.2c0,0.1,0,0.1,0,0.2v83.6h-0.1c3.9,0,7.5,1.9,9.7,5.2c4,6,10.7,9.6,17.9,9.6h72.4
		c14.8,0,26.9-12,26.9-26.9V233C347.7,218.2,335.7,206.1,320.9,206.1z"/>
	<path id="XMLID_835_" d="M209.9,173.1h-69.8c-6,0-10.8,4.8-10.8,10.8v141.5c0,6,4.8,10.8,10.8,10.8h69.8c6,0,10.8-4.8,10.8-10.8
		V183.9C220.7,177.9,215.9,173.1,209.9,173.1z"/>
	<g>
		<path id="XMLID_836_" class="st1" d="M138.3,314V185.9c0-0.1,0.1-0.2,0.2-0.2h73.1c0.1,0,0.2,0.1,0.2,0.2V314
			c0,0.1-0.1,0.2-0.2,0.2h-73.1C138.3,314.2,138.3,314.1,138.3,314z"/>
		<circle id="XMLID_837_" class="st1" cx="175" cy="325.6" r="7.7"/>
		<path id="XMLID_838_" class="st1" d="M185.8,178.3h-21.7c-0.6,0-1.1,0.5-1.1,1.1v0.2c0,0.6,0.5,1.1,1.1,1.1h21.7
			c0.6,0,1.1-0.5,1.1-1.1v-0.2C187,178.8,186.5,178.3,185.8,178.3z"/>
	</g>
</g>
</svg>
