<svg xmlns="http://www.w3.org/2000/svg" xmlns:xlink="http://www.w3.org/1999/xlink" id="Layer_1" x="0px" y="0px" viewBox="0 0 360 360" style="enable-background:new 0 0 360 360;" xml:space="preserve"> <style type="text/css"> .st0{fill:url(#SVGID_1_);} .st1{fill:#1747C4;} </style> <g> <g> <linearGradient id="SVGID_1_" gradientUnits="userSpaceOnUse" x1="179.9105" y1="272.6137" x2="179.9105" y2="52.2561"> <stop offset="0" style="stop-color:#09D7E7"></stop> <stop offset="0.3154" style="stop-color:#0EA6DB"></stop> <stop offset="0.7814" style="stop-color:#1462CA"></stop> <stop offset="1" style="stop-color:#1747C4"></stop> </linearGradient> <path class="st0" d="M330.2,32.3H29.7c-16.5,0-29.8,13.4-29.8,29.8v177.6c0,16.5,13.4,29.8,29.8,29.8h300.5 c16.5,0,29.8-13.4,29.8-29.8V62.2C360,45.7,346.6,32.3,330.2,32.3z M340.4,232.6c0,9.2-7.5,16.7-16.7,16.7H36.1 c-9.2,0-16.7-7.5-16.7-16.7V69.3c0-9.2,7.5-16.7,16.7-16.7h287.6c9.2,0,16.7,7.5,16.7,16.7V232.6z"></path> </g> <path class="st1" d="M209.3,281.2H152c-5.3,0-10.1,2.8-12.6,7.4L119,325.2c-5.4,9.6,1.6,21.5,12.6,21.5h96.6 c10.8,0,17.8-11.5,12.9-21.1L222.2,289C219.7,284.2,214.7,281.2,209.3,281.2z"></path> <polygon points="230.7,134.3 129.1,100.4 164.3,201.5 177.1,155.1 218.5,196 225.8,188.6 184.4,147.7 "></polygon> </g> </svg>