<?xml version="1.0" encoding="utf-8"?>
<!-- Generator: Adobe Illustrator 27.2.0, SVG Export Plug-In . SVG Version: 6.00 Build 0)  -->
<svg version="1.1" id="Layer_1" xmlns="http://www.w3.org/2000/svg" xmlns:xlink="http://www.w3.org/1999/xlink" x="0px" y="0px"
	 viewBox="0 0 146 135.1" style="enable-background:new 0 0 146 135.1;" xml:space="preserve">
<style type="text/css">
	.st0{fill:#39BDEE;}
</style>
<g>
	<path class="st0" d="M26.2,133.4h71.5c12.9,0,23.5-10.5,23.5-23.5V77.6c0-3.1-2.5-5.6-5.6-5.6s-5.6,2.5-5.6,5.6v32.4
		c0,6.8-5.5,12.3-12.3,12.3H26.2c-6.8,0-12.3-5.5-12.3-12.3V38.5c0-6.8,5.5-12.3,12.3-12.3h51.9c3.1,0,5.6-2.5,5.6-5.6
		S81.2,15,78.1,15H26.2C13.2,15,2.7,25.5,2.7,38.5v71.5C2.7,122.9,13.2,133.4,26.2,133.4z"/>
	<path class="st0" d="M51.4,56.9c-4-4.7-11.1-5.2-15.8-1.1c-4.7,4-5.2,11.1-1.1,15.8l22.2,25.7c2.1,2.5,5.2,3.9,8.4,3.9
		c3.2,0,6.3-1.4,8.4-3.9l66.6-77.1c4-4.7,3.5-11.7-1.1-15.8c-4.7-4-11.7-3.5-15.8,1.1L65.1,72.8L51.4,56.9z"/>
</g>
</svg>
