<?xml version="1.0" encoding="utf-8"?>
<!-- Generator: Adobe Illustrator 16.0.0, SVG Export Plug-In . SVG Version: 6.00 Build 0)  -->
<!DOCTYPE svg PUBLIC "-//W3C//DTD SVG 1.1//EN" "http://www.w3.org/Graphics/SVG/1.1/DTD/svg11.dtd">
<svg version="1.1" id="Layer_1" xmlns="http://www.w3.org/2000/svg" xmlns:xlink="http://www.w3.org/1999/xlink" x="0px" y="0px"
	 width="1449.172px" height="470.002px" viewBox="0 0 1449.172 470.002" enable-background="new 0 0 1449.172 470.002"
	 xml:space="preserve">
<path fill="#45B6E1" d="M111.453,303.668c0,4.598-7.105,3.971-11.494,3.971c-19.227,0-19.436-22.361-20.69-38.662
	c-0.836-9.404-2.299-33.646,1.881-50.992c2.508-11.703,8.15-18.809,16.092-20.48c4.598-0.836,4.598,5.016,4.598,7.941
	c0,14.629-0.418,29.467,0,44.723c14.42,9.613,33.229,8.986,46.812,1.881c13.584-6.896,24.451-17.137,22.361-33.229
	c-2.926-24.242-14.838-35.109-40.543-47.021c-24.869-11.494-66.875-17.555-96.969-10.658c-6.27,1.463-9.613,4.18-17.555,4.18
	c-2.508,0-6.061-2.717-3.971-4.806c16.719-18.601,56.008-22.57,100.312-13.375c44.723,9.404,83.594,28.631,82.131,68.129
	c-1.463,33.02-27.586,46.604-54.336,52.664c-3.762,0.836-22.152,4.18-35.945,3.344c0.836,6.479,1.672,12.539,2.717,19.018
	C107.9,295.727,111.871,300.324,111.453,303.668z"/>
<path fill="#45B6E1" d="M234.545,293.219c-11.912,0.627-26.541-7.105-27.586-18.601c-2.299-26.332,24.033-50.574,52.664-57.888
	c6.896-1.463,16.928,1.672,20.898,8.986c2.717,4.807,5.643,10.449,1.045,14.419c-1.254,1.672-4.389,2.717-4.807,1.463
	c-2.09-3.135-7.732-10.449-13.793-9.613c-19.227,1.045-31.766,12.121-32.81,26.332c-1.881,11.703,3.762,19.436,14.002,18.809
	c11.076-0.627,17.973-3.762,24.033-7.941c3.762-2.508,6.896-9.404,12.33-9.404c5.852,0,7.105,10.658,14.002,13.584
	c8.986,3.971,20.898,0.418,29.466-1.881c1.672-0.209,2.09,2.299,1.463,3.135c-12.121,12.957-29.257,18.601-37.617,18.601
	c-8.777,0-14.42-5.434-19.227-10.24C264.012,278.799,247.92,292.174,234.545,293.219z"/>
<path fill="#45B6E1" d="M320.02,288.621c-2.299-19.645-2.508-40.334-2.299-61.232c-0.418-4.807,5.852-17.764,13.166-17.764
	c5.852,0,7.105,5.225,6.896,8.15c0.21,10.449-2.926,23.197-1.254,34.482c8.569-11.285,18.182-38.662,32.394-38.662
	c7.731,0,8.567,15.047,13.375,20.899c8.776,10.449,18.809,10.658,26.331,9.613c3.136-0.209,3.762,2.717,1.045,6.271
	c-5.851,6.896-19.645,9.613-25.078,9.613c-16.718,0-20.48-19.018-25.496-19.018c-3.971,0-8.359,6.27-10.03,8.986
	c-7.941,14.42-9.196,33.02-13.793,47.857c-1.045,3.344-3.136,5.225-5.225,5.225c-3.345,0-7.941-1.045-8.986-4.389
	C320.02,295.936,320.02,290.711,320.02,288.621z"/>
<path fill="#45B6E1" d="M403.193,217.357l4.389-0.627l2.717-19.436c1.045-4.807,2.09-15.256,11.912-18.809
	c2.926-1.045,5.016,3.971,5.016,7.105c0,4.389-0.836,19.854-2.09,31.766c12.539,0,21.943-2.508,33.02-2.926
	c2.926-0.418,10.24-1.045,8.15,3.553c-1.881,4.18-5.852,6.27-15.047,8.15c-8.15,1.881-18.182,3.135-27.168,4.389
	c-0.627,4.18-0.836,4.389-0.836,6.269c-0.209,14.629,0.627,40.543,24.66,40.543c8.568,0,20.689-3.135,33.438-10.031
	c2.09-1.254,4.389,1.672,3.344,3.553c-7.941,14.211-27.586,27.377-47.648,27.377c-36.99,0-31.139-41.797-31.348-65.621
	c-2.287,0.292-4.591,0.432-6.896,0.418c-3.553,0-8.568,0-8.568-4.598C390.445,222.373,397.551,217.984,403.193,217.357z"/>
<path fill="#45B6E1" d="M546.556,296.354c0.394-12.905-0.095-25.823-1.463-38.662c-7.105,12.539-27.377,37.199-46.604,37.199
	c-21.107,0-21.316-37.199-20.48-48.484c0-13.793-0.836-23.824,11.703-31.557c1.241-0.797,2.71-1.164,4.18-1.045
	c2.926,0,5.643,5.016,5.434,7.941c0,11.703-1.254,23.197,0,35.945c1.045,5.643,2.717,17.555,12.539,17.555
	c11.912,0,26.541-23.406,31.975-33.02c1.463-7.732,1.254-27.795,16.511-27.795c4.389,0,5.643,3.135,6.061,7.105
	c1.254,21.734,1.254,39.707-0.418,54.963c-0.209,3.553-1.045,7.523-1.463,11.703c2.926-0.418,5.643,2.926,5.434,5.016
	c-0.418,4.18-3.344,10.449-8.568,11.494c-1.657,7.933-4.036,15.697-7.105,23.197c-4.181,8.986-14.629,20.898-24.451,20.898
	c-8.777,0-15.674-7.941-15.674-15.047C514.163,318.715,528.792,305.758,546.556,296.354z M545.302,310.564l-5.852,2.299
	c-5.643,2.717-11.912,8.359-11.285,15.256c0.209,2.09,1.672,5.852,5.016,5.852C540.913,333.971,543.63,324.148,545.302,310.564z"/>
<path fill="#45B6E1" d="M738.821,303.668c0,4.598-7.105,3.971-11.494,3.971c-19.227,0-19.436-22.361-20.69-38.662
	c-0.836-9.404-2.299-33.646,1.881-50.992c2.508-11.703,8.149-18.809,16.092-20.48c4.598-0.836,4.598,5.016,4.598,7.941
	c0,14.629-0.418,29.467,0,44.723c14.42,9.613,33.229,8.986,46.812,1.881c13.584-6.896,24.451-17.137,22.361-33.229
	c-2.926-24.242-14.838-35.109-40.543-47.021c-24.869-11.494-66.875-17.555-96.969-10.658c-6.27,1.463-9.613,4.18-17.555,4.18
	c-2.508,0-6.061-2.717-3.971-4.806c16.719-18.601,56.008-22.57,100.313-13.375c44.723,9.404,83.594,28.631,82.131,68.129
	c-1.463,33.02-27.586,46.604-54.336,52.664c-3.762,0.836-22.152,4.18-35.945,3.344c0.836,6.479,1.672,12.539,2.717,19.018
	C735.268,295.727,739.239,300.324,738.821,303.668z"/>
<path fill="#45B6E1" d="M843.938,198.967c0.209-14.42,1.254-29.258,4.18-43.678c0.836-4.598,8.777-12.539,14.211-12.539
	c1.881,0,4.182,2.09,4.598,3.135c0.627,1.672,0.836,3.553,0.836,7.941c0,2.299,0,5.016-0.209,8.986
	c-0.627,22.152-4.18,56.008-3.971,77.115c0.209,20.479,3.971,40.961,31.139,39.498c10.658-0.627,15.883-3.762,25.705-8.986
	c3.135-2.09,2.926,5.016,0.209,7.314c-8.986,8.359-26.75,17.973-41.17,18.6c-25.914,1.046-35.318-19.227-35.318-48.066
	C844.356,232.195,843.52,215.686,843.938,198.967z"/>
<path fill="#45B6E1" d="M937.981,293.219c-11.912,0.627-26.541-7.105-27.586-18.601c-2.299-26.332,24.033-50.574,52.664-57.888
	c6.896-1.463,16.928,1.672,20.898,8.986c2.717,4.807,5.643,10.449,1.045,14.419c-1.254,1.672-4.389,2.717-4.807,1.463
	c-2.09-3.135-7.732-10.449-13.793-9.613c-19.227,1.045-31.766,12.121-32.809,26.332c-1.881,11.703,3.762,19.436,14.002,18.809
	c11.076-0.627,17.973-3.762,24.033-7.941c3.762-2.508,6.896-9.404,12.33-9.404c5.852,0,7.105,10.658,14.002,13.584
	c8.986,3.971,20.898,0.418,29.467-1.881c1.67-0.209,2.09,2.299,1.461,3.135c-12.119,12.957-29.258,18.601-37.615,18.601
	c-8.779,0-14.422-5.434-19.229-10.24C967.448,278.799,951.356,292.174,937.981,293.219z"/>
<path fill="#45B6E1" d="M1069.432,247.45c-4.18,0.836-8.777,5.644-11.912,9.405c-8.777,10.658-18.182,34.899-29.885,35.526
	c-6.479,0.21-6.479-5.434-6.27-9.404c1.881-19.017,0.418-34.899,0.418-54.544c0.627-5.852,5.852-14.211,14.42-15.883
	c2.299-0.209,5.434,3.344,6.061,5.434c0.627,3.971-1.672,23.405-1.463,28.84c0,3.553-0.836,8.777,4.182,6.688
	c9.822-3.971,24.242-31.348,37.199-32.602c6.061-0.418,10.24,4.389,11.076,8.568c3.762,13.375,6.27,26.123,11.285,38.662
	c2.508,6.896,7.941,10.867,14.629,10.867c5.014-0.079,9.943-1.294,14.42-3.553c3.971-2.09,2.926,3.553,1.463,6.27
	c-6.27,9.404-21.734,18.182-29.467,18.182c-12.121,0-19.436-12.957-22.57-21.943c-1.045-3.762-4.807-21.525-6.27-24.869
	C1076.059,249.651,1072.938,247.244,1069.432,247.45z"/>
<path fill="#45B6E1" d="M1181.237,247.45c-4.18,0.836-8.777,5.644-11.912,9.405c-8.777,10.658-18.182,34.899-29.885,35.526
	c-6.479,0.21-6.479-5.434-6.27-9.404c1.881-19.017,0.418-34.899,0.418-54.544c0.627-5.852,5.852-14.211,14.42-15.883
	c2.299-0.209,5.434,3.344,6.061,5.434c0.627,3.971-1.672,23.405-1.463,28.84c0,3.553-0.836,8.777,4.182,6.688
	c9.822-3.971,24.242-31.348,37.199-32.602c6.061-0.418,10.238,4.389,11.076,8.568c3.762,13.375,6.27,26.123,11.285,38.662
	c2.508,6.896,7.941,10.867,14.629,10.867c5.012-0.079,9.943-1.294,14.42-3.553c3.971-2.09,2.926,3.553,1.463,6.27
	c-6.271,9.404-21.734,18.182-29.467,18.182c-12.121,0-19.436-12.957-22.57-21.943c-1.045-3.762-4.807-21.525-6.27-24.869
	C1187.862,249.651,1184.743,247.244,1181.237,247.45z"/>
<path fill="#45B6E1" d="M1345.706,266.051c1.881-1.045,6.27-1.881,6.27,0c0,2.299-3.971,6.479-5.225,7.732
	c-13.584,10.031-35.945,19.436-58.098,20.48c-19.436,1.045-48.275-2.926-48.275-30.512c0.209-19.854,31.348-47.23,51.828-48.275
	c12.121-0.627,20.689,5.225,19.436,16.51c-2.508,17.136-29.885,27.794-45.141,34.064c3.762,10.449,14.629,15.465,35.318,14.003
	C1317.911,278.799,1334.002,271.275,1345.706,266.051z M1265.247,254.139c11.703-1.463,25.914-6.896,25.914-18.809
	c0-3.135-1.463-5.852-5.016-5.434c-7.314,0.627-18.809,11.912-20.271,18.391C1265.469,250.212,1265.26,252.172,1265.247,254.139
	L1265.247,254.139z"/>
<path fill="#45B6E1" d="M1345.286,288.621c-2.299-19.645-2.508-40.334-2.299-61.232c-0.418-4.807,5.852-17.764,13.166-17.764
	c5.852,0,7.105,5.225,6.896,8.15c0.209,10.449-2.926,23.197-1.254,34.482c8.568-11.285,18.182-38.662,32.393-38.662
	c7.732,0,8.568,15.047,13.375,20.899c8.777,10.449,18.809,10.658,26.332,9.613c3.135-0.209,3.762,2.717,1.045,6.271
	c-5.852,6.896-19.645,9.613-25.078,9.613c-16.719,0-20.479-19.018-25.496-19.018c-3.971,0-8.359,6.27-10.031,8.986
	c-7.941,14.42-9.195,33.02-13.793,47.857c-1.045,3.344-3.135,5.225-5.225,5.225c-3.344,0-7.941-1.045-8.986-4.389
	C1345.286,295.936,1345.286,290.711,1345.286,288.621z"/>
<path d="M76.161,109.201C61.67,80.514,47.18,51.826,32.689,23.138h11.308c12.438,25.044,24.877,50.088,37.315,75.133h0.628
	c12.438-25.044,24.877-50.089,37.315-75.133h10.931c-14.491,28.688-28.981,57.376-43.472,86.063H76.161z"/>
<path d="M148.155,109.201V23.138h10.051c0,28.688,0,57.376,0,86.063H148.155z"/>
<path d="M255.578,109.201l-26.385-33.922c-2.89,0.251-5.904,0.251-9.046,0.251h-20.73c0,11.224,0,22.448,0,33.672h-10.052
	c0-28.688,0-57.376,0-86.064h31.662c12.012,0.179,25.772-0.796,35.808,6.533c5.75,4.199,8.418,10.805,8.418,19.223
	c0,7.664-2.325,13.807-7.664,18.468c-4.012,3.502-9.8,5.654-16.836,6.785l27.39,35.054H255.578z M222.283,31.681h-22.866
	c0,11.811,0,23.621,0,35.431h22.866c12.512,0.472,32.687-1.268,32.667-17.966C254.93,32.651,234.463,31.251,222.283,31.681z"/>
<path d="M315.888,109.201V32.183h-39.074c0-3.618,0-5.427,0-9.045h88.325v9.045h-39.074v77.018H315.888z"/>
<path d="M392.278,102.542c-8.813-6.512-10.223-18.062-9.8-28.269c0-17.045,0-34.09,0-51.135h10.052c0,16.793,0,33.587,0,50.381
	c0,9.675,1.007,16.854,7.036,22.113c5.762,5.027,15.327,6.408,25.253,6.408c9.299,0,19.214-1.246,25.381-6.408
	c6.02-5.038,6.91-12.188,6.91-21.986c0-16.836,0-33.672,0-50.508h9.799c0,17.045,0,34.09,0,51.135
	c0.41,10.263-1.113,21.853-9.926,28.396c-9.202,6.832-21.229,8.299-32.289,8.292C413.591,110.953,401.528,109.377,392.278,102.542z"
	/>
<path d="M571.695,109.201c-5.125-9.9-7.688-14.851-12.814-24.75h-52.268c-5.125,9.9-7.688,14.85-12.814,24.75h-10.807
	c14.868-28.688,29.736-57.375,44.604-86.063h10.68c14.91,28.688,29.819,57.376,44.729,86.064H571.695z M532.873,33.942h-0.504
	c-7.203,14.03-14.406,28.06-21.609,42.09h43.851C547.364,62.002,540.119,47.973,532.873,33.942L532.873,33.942z"/>
<path d="M600.973,109.201c0-28.688,0-57.375,0-86.063h10.051c0,25.631,0,51.261,0,76.892c18.763,0,37.525,0,56.288,0
	c0,3.669,0,5.503,0,9.172C645.198,109.201,623.086,109.201,600.973,109.201z"/>
<path d="M1406.811,399.325c-4.785-0.08-8.602-4.024-8.521-8.811c0.078-4.674,3.848-8.445,8.521-8.522
	c3.754,0,12.059,5.012,14.514,6.547c1.172,0.731,1.527,2.274,0.795,3.444c-0.201,0.322-0.473,0.594-0.795,0.795
	C1418.87,394.314,1410.565,399.325,1406.811,399.325z M1406.811,386.992c-2.023,0.079-3.602,1.784-3.523,3.81
	c0.076,1.914,1.609,3.448,3.523,3.523c1.162,0,4.699-1.662,8.277-3.666C1411.51,388.655,1407.973,386.992,1406.811,386.992z"/>
<path d="M720.562,448.88c-10.536-0.12-18.987-8.745-18.894-19.281c0-9.678,15.032-35.145,16.747-38.017
	c0.708-1.186,2.242-1.573,3.428-0.865c0.355,0.212,0.653,0.51,0.865,0.865c1.715,2.872,16.749,28.339,16.749,38.017
	C739.551,440.135,731.098,448.76,720.562,448.88z M720.562,397.836c-5.227,9.18-13.894,25.678-13.894,31.763
	c-0.211,7.673,5.838,14.065,13.512,14.276c7.673,0.211,14.066-5.839,14.277-13.512c0.006-0.255,0.006-0.51,0-0.765
	C734.458,423.514,725.79,407.016,720.562,397.836L720.562,397.836z"/>
<path d="M689.512,430.52c-6.816-0.014-13.093-3.713-16.405-9.67c-5.183-9.194-2.124-20.842,6.906-26.304l0,0
	c8.222-4.858,37.321-4.266,40.613-4.182c1.38,0.035,2.471,1.182,2.436,2.562c-0.01,0.388-0.109,0.769-0.292,1.111
	c-1.574,2.956-15.61,29.026-23.818,33.878C696.096,429.615,692.834,430.515,689.512,430.52z M682.557,398.851
	c-6.699,4.067-8.956,12.722-5.096,19.542c1.82,3.281,4.894,5.684,8.518,6.657c3.527,0.954,7.291,0.435,10.428-1.438
	c5.158-3.048,14.842-19.107,19.974-28.306C706.008,395.245,687.691,395.815,682.557,398.851z"/>
<path d="M751.614,430.52c-3.322-0.005-6.582-0.904-9.438-2.604c-8.211-4.852-22.247-30.922-23.821-33.878
	c-0.648-1.219-0.187-2.732,1.033-3.382c0.342-0.183,0.723-0.282,1.11-0.292c3.292-0.084,32.394-0.676,40.613,4.182
	c9.031,5.462,12.09,17.109,6.908,26.304C764.708,426.807,758.43,430.506,751.614,430.52L751.614,430.52z M724.745,395.306
	c5.132,9.198,14.816,25.258,19.974,28.306l0,0c3.137,1.871,6.9,2.391,10.428,1.439c3.623-0.975,6.697-3.377,8.518-6.658
	c3.859-6.82,1.604-15.475-5.096-19.542C753.434,395.815,735.098,395.25,724.745,395.306z"/>
<path d="M1400.526,393.31H44.508c-1.381,0-2.5-1.119-2.5-2.5s1.119-2.5,2.5-2.5h1356.018c1.381,0,2.5,1.119,2.5,2.5
	S1401.907,393.31,1400.526,393.31z"/>
<path d="M38.189,399.434c-3.753,0-12.058-5.012-14.515-6.547c-1.171-0.732-1.526-2.275-0.794-3.446
	c0.201-0.321,0.473-0.593,0.794-0.794c2.456-1.536,10.761-6.546,14.514-6.546c4.787,0.08,8.602,4.024,8.522,8.811
	C46.634,395.586,42.863,399.356,38.189,399.434L38.189,399.434z M29.911,390.767c3.578,2.004,7.116,3.667,8.278,3.667
	c2.025-0.081,3.601-1.788,3.521-3.812c-0.076-1.912-1.609-3.444-3.521-3.521C37.025,387.101,33.488,388.763,29.911,390.767z"/>
<path d="M1403,98.896H716.047c-1.381,0-2.5-1.12-2.5-2.5c0-1.381,1.119-2.5,2.5-2.5H1403c1.381,0,2.5,1.119,2.5,2.5
	C1405.5,97.776,1404.381,98.896,1403,98.896z"/>
<path d="M1409.077,105.334c-4.787-0.016-8.654-3.909-8.639-8.696c0.016-4.764,3.875-8.622,8.639-8.638
	c3.812,0,12.295,5,14.803,6.533c1.18,0.72,1.551,2.258,0.83,3.437c-0.207,0.339-0.49,0.623-0.83,0.83
	C1421.372,100.333,1412.889,105.334,1409.077,105.334z M1409.077,93.001c-2.025,0.011-3.658,1.661-3.648,3.686
	c0.012,2.01,1.639,3.637,3.648,3.647c1.203,0,4.832-1.662,8.5-3.667C1413.907,94.663,1410.278,93.001,1409.077,93.001z"/>
</svg>
