<svg xmlns="http://www.w3.org/2000/svg" xmlns:xlink="http://www.w3.org/1999/xlink" id="Layer_1" x="0px" y="0px" viewBox="0 0 360 360" style="enable-background:new 0 0 360 360;" xml:space="preserve"> <style type="text/css"> .st0{fill:#00C1FD;} .st1{fill:url(#SVGID_1_);} </style> <g> <polygon class="st0" points="311.3,28.3 305.4,0.5 277.6,6.3 289.9,14.4 216.6,129.7 134.4,95.6 73.2,196.9 34.4,181.1 34.4,192.2 77.4,209.7 138.6,108.5 220.6,142.5 298.5,20 "></polygon> <g> <g> <linearGradient id="SVGID_1_" gradientUnits="userSpaceOnUse" x1="356.7732" y1="96.0688" x2="99.3378" y2="321.8739"> <stop offset="0" style="stop-color:#09D7E7"></stop> <stop offset="0.3154" style="stop-color:#0EA6DB"></stop> <stop offset="0.7814" style="stop-color:#1462CA"></stop> <stop offset="1" style="stop-color:#1747C4"></stop> </linearGradient> <path class="st1" d="M120,265.7c0-45.1,36.7-81.7,81.7-81.7c45.1,0,81.7,36.7,81.7,81.7c0,9.5-1.6,18.7-4.8,27.6l3.9,3.6h25.9 V52.9l-77.6,122l-82.1-34.1L87.7,242.1l-53.3-21.6v76.4h91.9C122.2,287.2,120,276.7,120,265.7z"></path> </g> <path d="M130.3,265.7c0,39.4,32,71.4,71.4,71.4c15.8,0,30.4-5.2,42.2-13.9l35.1,32.2c7.2,6.6,18.3,6.1,24.9-1.1 c3.1-3.4,4.6-7.7,4.6-11.9c0-4.8-1.9-9.5-5.7-13L266.3,296c4.3-9.2,6.8-19.5,6.8-30.3c0-39.5-32-71.4-71.4-71.4 C162.3,194.3,130.3,226.2,130.3,265.7z M253.6,265.7c0,28.6-23.2,51.8-51.9,51.8c-28.6,0-51.8-23.2-51.8-51.8 c0-28.6,23.2-51.9,51.8-51.9C230.4,213.8,253.6,237,253.6,265.7z"></path> </g> </g> </svg>